<mxfile host="Electron" agent="Mozilla/5.0 (Windows NT 10.0; Win64; x64) AppleWebKit/537.36 (KHTML, like Gecko) draw.io/24.7.8 Chrome/128.0.6613.36 Electron/32.0.1 Safari/537.36" version="24.7.8">
  <diagram name="페이지-1" id="FhggoKb8iGWl9-fDYu0h">
    <mxGraphModel dx="1882" dy="982" grid="1" gridSize="10" guides="1" tooltips="1" connect="1" arrows="1" fold="1" page="1" pageScale="1" pageWidth="827" pageHeight="1169" math="0" shadow="0">
      <root>
        <mxCell id="0" />
        <mxCell id="1" parent="0" />
        <mxCell id="45gfRjh9HsWmHlMW1jci-84" value="" style="edgeStyle=orthogonalEdgeStyle;rounded=0;orthogonalLoop=1;jettySize=auto;html=1;" parent="1" source="45gfRjh9HsWmHlMW1jci-82" target="45gfRjh9HsWmHlMW1jci-83" edge="1">
          <mxGeometry relative="1" as="geometry" />
        </mxCell>
        <mxCell id="45gfRjh9HsWmHlMW1jci-82" value="START" style="strokeWidth=2;html=1;shape=mxgraph.flowchart.terminator;whiteSpace=wrap;" parent="1" vertex="1">
          <mxGeometry x="-518" y="30" width="100" height="60" as="geometry" />
        </mxCell>
        <mxCell id="7ljupvXo5ac0z_pW9ECu-68" value="" style="edgeStyle=orthogonalEdgeStyle;rounded=0;orthogonalLoop=1;jettySize=auto;html=1;" edge="1" parent="1">
          <mxGeometry relative="1" as="geometry">
            <mxPoint x="-468" y="243" as="sourcePoint" />
            <mxPoint x="-468" y="315" as="targetPoint" />
          </mxGeometry>
        </mxCell>
        <mxCell id="45gfRjh9HsWmHlMW1jci-83" value="int total = 0;&lt;div&gt;int sum = 0;&lt;/div&gt;&lt;div&gt;int prevClass;&lt;/div&gt;&lt;div&gt;int class, seq, score;&lt;/div&gt;&lt;div&gt;int flag = 1;&lt;/div&gt;" style="shape=hexagon;perimeter=hexagonPerimeter2;whiteSpace=wrap;html=1;fixedSize=1;" parent="1" vertex="1">
          <mxGeometry x="-603" y="145" width="270" height="100" as="geometry" />
        </mxCell>
        <mxCell id="45gfRjh9HsWmHlMW1jci-108" value="True" style="swimlane;whiteSpace=wrap;html=1;" parent="1" vertex="1">
          <mxGeometry x="-790" y="317" width="867.6366322008863" height="859" as="geometry" />
        </mxCell>
        <mxCell id="45gfRjh9HsWmHlMW1jci-109" value="" style="group" parent="45gfRjh9HsWmHlMW1jci-108" vertex="1" connectable="0">
          <mxGeometry x="43" y="80" width="185" height="99" as="geometry" />
        </mxCell>
        <mxCell id="45gfRjh9HsWmHlMW1jci-110" value="" style="verticalLabelPosition=bottom;verticalAlign=top;html=1;shape=card;whiteSpace=wrap;size=20;arcSize=12;" parent="45gfRjh9HsWmHlMW1jci-109" vertex="1">
          <mxGeometry width="185" height="99" as="geometry" />
        </mxCell>
        <mxCell id="45gfRjh9HsWmHlMW1jci-111" value="&lt;b&gt;&lt;font style=&quot;font-size: 14px;&quot;&gt;class&lt;/font&gt;&lt;/b&gt;&lt;div&gt;&lt;b&gt;&lt;font size=&quot;3&quot;&gt;,seq&lt;/font&gt;&lt;/b&gt;&lt;/div&gt;&lt;div&gt;&lt;b&gt;&lt;font size=&quot;3&quot;&gt;,score&lt;/font&gt;&lt;/b&gt;&lt;/div&gt;" style="text;html=1;align=center;verticalAlign=middle;whiteSpace=wrap;rounded=0;" parent="45gfRjh9HsWmHlMW1jci-109" vertex="1">
          <mxGeometry y="20" width="166.5" height="62.5" as="geometry" />
        </mxCell>
        <mxCell id="45gfRjh9HsWmHlMW1jci-115" value="" style="edgeStyle=orthogonalEdgeStyle;rounded=0;orthogonalLoop=1;jettySize=auto;html=1;entryX=0.5;entryY=0;entryDx=0;entryDy=0;" parent="45gfRjh9HsWmHlMW1jci-108" target="7ljupvXo5ac0z_pW9ECu-72" edge="1">
          <mxGeometry relative="1" as="geometry">
            <mxPoint x="118" y="183" as="sourcePoint" />
            <mxPoint x="190" y="253" as="targetPoint" />
          </mxGeometry>
        </mxCell>
        <mxCell id="7ljupvXo5ac0z_pW9ECu-142" value="" style="edgeStyle=orthogonalEdgeStyle;rounded=0;orthogonalLoop=1;jettySize=auto;html=1;" edge="1" parent="45gfRjh9HsWmHlMW1jci-108" source="7ljupvXo5ac0z_pW9ECu-40" target="7ljupvXo5ac0z_pW9ECu-5">
          <mxGeometry relative="1" as="geometry" />
        </mxCell>
        <mxCell id="7ljupvXo5ac0z_pW9ECu-40" value="prevClass + &quot;반 총점: &quot; + sum" style="strokeWidth=2;html=1;shape=mxgraph.flowchart.display;whiteSpace=wrap;" vertex="1" parent="45gfRjh9HsWmHlMW1jci-108">
          <mxGeometry x="632" y="667" width="206" height="60" as="geometry" />
        </mxCell>
        <mxCell id="7ljupvXo5ac0z_pW9ECu-136" value="" style="edgeStyle=orthogonalEdgeStyle;rounded=0;orthogonalLoop=1;jettySize=auto;html=1;" edge="1" parent="45gfRjh9HsWmHlMW1jci-108" source="45gfRjh9HsWmHlMW1jci-114">
          <mxGeometry relative="1" as="geometry">
            <mxPoint x="746" y="668.0050000000001" as="targetPoint" />
          </mxGeometry>
        </mxCell>
        <mxCell id="7ljupvXo5ac0z_pW9ECu-138" value="" style="edgeStyle=orthogonalEdgeStyle;rounded=0;orthogonalLoop=1;jettySize=auto;html=1;" edge="1" parent="45gfRjh9HsWmHlMW1jci-108" source="45gfRjh9HsWmHlMW1jci-114" target="7ljupvXo5ac0z_pW9ECu-137">
          <mxGeometry relative="1" as="geometry" />
        </mxCell>
        <mxCell id="45gfRjh9HsWmHlMW1jci-114" value="prevClass==class" style="rhombus;whiteSpace=wrap;html=1;" parent="45gfRjh9HsWmHlMW1jci-108" vertex="1">
          <mxGeometry x="383" y="512" width="234" height="116.25" as="geometry" />
        </mxCell>
        <mxCell id="7ljupvXo5ac0z_pW9ECu-141" value="" style="edgeStyle=orthogonalEdgeStyle;rounded=0;orthogonalLoop=1;jettySize=auto;html=1;exitX=0.45;exitY=1.004;exitDx=0;exitDy=0;exitPerimeter=0;" edge="1" parent="45gfRjh9HsWmHlMW1jci-108" source="7ljupvXo5ac0z_pW9ECu-5">
          <mxGeometry relative="1" as="geometry">
            <mxPoint x="600" y="704" as="sourcePoint" />
            <mxPoint x="366" y="933" as="targetPoint" />
            <Array as="points">
              <mxPoint x="720" y="817" />
              <mxPoint x="720" y="933" />
            </Array>
          </mxGeometry>
        </mxCell>
        <mxCell id="7ljupvXo5ac0z_pW9ECu-5" value="&amp;nbsp;total += sum;&lt;br&gt;                   sum = score;&lt;div&gt;&amp;nbsp;prevClass = class;&lt;br&gt;&lt;/div&gt;" style="rounded=0;whiteSpace=wrap;html=1;" vertex="1" parent="45gfRjh9HsWmHlMW1jci-108">
          <mxGeometry x="640" y="758" width="190" height="59" as="geometry" />
        </mxCell>
        <mxCell id="7ljupvXo5ac0z_pW9ECu-32" value="N" style="text;html=1;align=center;verticalAlign=middle;whiteSpace=wrap;rounded=0;" vertex="1" parent="45gfRjh9HsWmHlMW1jci-108">
          <mxGeometry x="586" y="532" width="60" height="30" as="geometry" />
        </mxCell>
        <mxCell id="7ljupvXo5ac0z_pW9ECu-31" value="Y" style="text;html=1;align=center;verticalAlign=middle;whiteSpace=wrap;rounded=0;" vertex="1" parent="45gfRjh9HsWmHlMW1jci-108">
          <mxGeometry x="426" y="619" width="60" height="30" as="geometry" />
        </mxCell>
        <mxCell id="7ljupvXo5ac0z_pW9ECu-139" value="" style="edgeStyle=orthogonalEdgeStyle;rounded=0;orthogonalLoop=1;jettySize=auto;html=1;exitX=0.5;exitY=1;exitDx=0;exitDy=0;" edge="1" parent="45gfRjh9HsWmHlMW1jci-108" source="7ljupvXo5ac0z_pW9ECu-137">
          <mxGeometry relative="1" as="geometry">
            <mxPoint x="366" y="684" as="sourcePoint" />
            <mxPoint x="366" y="933" as="targetPoint" />
            <Array as="points">
              <mxPoint x="510" y="796" />
              <mxPoint x="510" y="933" />
            </Array>
          </mxGeometry>
        </mxCell>
        <mxCell id="7ljupvXo5ac0z_pW9ECu-137" value="sum+=score;" style="whiteSpace=wrap;html=1;" vertex="1" parent="45gfRjh9HsWmHlMW1jci-108">
          <mxGeometry x="440" y="736.375" width="120" height="60" as="geometry" />
        </mxCell>
        <mxCell id="7ljupvXo5ac0z_pW9ECu-164" value="" style="edgeStyle=orthogonalEdgeStyle;rounded=0;orthogonalLoop=1;jettySize=auto;html=1;" edge="1" parent="45gfRjh9HsWmHlMW1jci-108" source="7ljupvXo5ac0z_pW9ECu-159" target="7ljupvXo5ac0z_pW9ECu-163">
          <mxGeometry relative="1" as="geometry" />
        </mxCell>
        <mxCell id="7ljupvXo5ac0z_pW9ECu-167" value="" style="edgeStyle=orthogonalEdgeStyle;rounded=0;orthogonalLoop=1;jettySize=auto;html=1;" edge="1" parent="45gfRjh9HsWmHlMW1jci-108" source="7ljupvXo5ac0z_pW9ECu-159">
          <mxGeometry relative="1" as="geometry">
            <mxPoint x="500" y="513" as="targetPoint" />
            <Array as="points">
              <mxPoint x="500" y="317" />
              <mxPoint x="500" y="513" />
            </Array>
          </mxGeometry>
        </mxCell>
        <mxCell id="7ljupvXo5ac0z_pW9ECu-159" value="flag==1" style="rhombus;whiteSpace=wrap;html=1;" vertex="1" parent="45gfRjh9HsWmHlMW1jci-108">
          <mxGeometry x="330" y="277" width="80" height="80" as="geometry" />
        </mxCell>
        <mxCell id="7ljupvXo5ac0z_pW9ECu-161" value="" style="edgeStyle=orthogonalEdgeStyle;rounded=0;orthogonalLoop=1;jettySize=auto;html=1;entryX=0.5;entryY=0;entryDx=0;entryDy=0;" edge="1" parent="45gfRjh9HsWmHlMW1jci-108" source="7ljupvXo5ac0z_pW9ECu-72" target="7ljupvXo5ac0z_pW9ECu-159">
          <mxGeometry relative="1" as="geometry" />
        </mxCell>
        <mxCell id="7ljupvXo5ac0z_pW9ECu-165" value="" style="edgeStyle=orthogonalEdgeStyle;rounded=0;orthogonalLoop=1;jettySize=auto;html=1;" edge="1" parent="45gfRjh9HsWmHlMW1jci-108" source="7ljupvXo5ac0z_pW9ECu-163">
          <mxGeometry relative="1" as="geometry">
            <mxPoint x="250" y="853" as="targetPoint" />
            <Array as="points">
              <mxPoint x="370" y="478" />
              <mxPoint x="250" y="478" />
              <mxPoint x="250" y="570" />
            </Array>
          </mxGeometry>
        </mxCell>
        <mxCell id="7ljupvXo5ac0z_pW9ECu-163" value="prevClass = class;&lt;br&gt;            sum = score;&lt;br&gt;flag = 0;&amp;nbsp;" style="rounded=0;whiteSpace=wrap;html=1;" vertex="1" parent="45gfRjh9HsWmHlMW1jci-108">
          <mxGeometry x="310" y="383.5" width="120" height="60" as="geometry" />
        </mxCell>
        <mxCell id="7ljupvXo5ac0z_pW9ECu-168" value="Y" style="text;html=1;align=center;verticalAlign=middle;whiteSpace=wrap;rounded=0;" vertex="1" parent="45gfRjh9HsWmHlMW1jci-108">
          <mxGeometry x="317" y="343" width="60" height="30" as="geometry" />
        </mxCell>
        <mxCell id="7ljupvXo5ac0z_pW9ECu-73" value="Y" style="text;html=1;align=center;verticalAlign=middle;whiteSpace=wrap;rounded=0;" vertex="1" parent="45gfRjh9HsWmHlMW1jci-108">
          <mxGeometry x="70.00000000000001" y="283" width="58.2274741506647" height="30" as="geometry" />
        </mxCell>
        <mxCell id="7ljupvXo5ac0z_pW9ECu-72" value="EOF" style="rhombus;whiteSpace=wrap;html=1;strokeWidth=2;" vertex="1" parent="45gfRjh9HsWmHlMW1jci-108">
          <mxGeometry x="79.46824224519946" y="213" width="77.63663220088627" height="80" as="geometry" />
        </mxCell>
        <mxCell id="7ljupvXo5ac0z_pW9ECu-74" value="N" style="text;html=1;align=center;verticalAlign=middle;whiteSpace=wrap;rounded=0;" vertex="1" parent="45gfRjh9HsWmHlMW1jci-108">
          <mxGeometry x="145.2689217134417" y="223" width="58.2274741506647" height="30" as="geometry" />
        </mxCell>
        <mxCell id="7ljupvXo5ac0z_pW9ECu-169" value="N" style="text;html=1;align=center;verticalAlign=middle;whiteSpace=wrap;rounded=0;" vertex="1" parent="45gfRjh9HsWmHlMW1jci-108">
          <mxGeometry x="392.11225997045796" y="283" width="58.2274741506647" height="30" as="geometry" />
        </mxCell>
        <mxCell id="7ljupvXo5ac0z_pW9ECu-158" value="" style="edgeStyle=orthogonalEdgeStyle;rounded=0;orthogonalLoop=1;jettySize=auto;html=1;" edge="1" parent="45gfRjh9HsWmHlMW1jci-108">
          <mxGeometry relative="1" as="geometry">
            <mxPoint x="511" y="859" as="sourcePoint" />
            <mxPoint x="510" y="932" as="targetPoint" />
          </mxGeometry>
        </mxCell>
        <mxCell id="45gfRjh9HsWmHlMW1jci-113" value="" style="endArrow=classic;html=1;rounded=0;entryX=0.443;entryY=-0.01;entryDx=0;entryDy=0;entryPerimeter=0;" parent="1" target="45gfRjh9HsWmHlMW1jci-110" edge="1">
          <mxGeometry width="50" height="50" relative="1" as="geometry">
            <mxPoint x="-664" y="337" as="sourcePoint" />
            <mxPoint x="-584" y="427" as="targetPoint" />
          </mxGeometry>
        </mxCell>
        <mxCell id="7ljupvXo5ac0z_pW9ECu-144" value="" style="edgeStyle=orthogonalEdgeStyle;rounded=0;orthogonalLoop=1;jettySize=auto;html=1;" edge="1" parent="1" source="7ljupvXo5ac0z_pW9ECu-19" target="7ljupvXo5ac0z_pW9ECu-54">
          <mxGeometry relative="1" as="geometry" />
        </mxCell>
        <mxCell id="7ljupvXo5ac0z_pW9ECu-19" value="total += sum;" style="whiteSpace=wrap;html=1;strokeWidth=2;" vertex="1" parent="1">
          <mxGeometry x="-488" y="1372" width="120" height="60" as="geometry" />
        </mxCell>
        <mxCell id="7ljupvXo5ac0z_pW9ECu-27" value="END" style="strokeWidth=2;html=1;shape=mxgraph.flowchart.terminator;whiteSpace=wrap;" vertex="1" parent="1">
          <mxGeometry x="-479" y="1627" width="100" height="60" as="geometry" />
        </mxCell>
        <mxCell id="7ljupvXo5ac0z_pW9ECu-43" value="" style="edgeStyle=orthogonalEdgeStyle;rounded=0;orthogonalLoop=1;jettySize=auto;html=1;" edge="1" parent="1" source="7ljupvXo5ac0z_pW9ECu-42" target="7ljupvXo5ac0z_pW9ECu-19">
          <mxGeometry relative="1" as="geometry" />
        </mxCell>
        <mxCell id="7ljupvXo5ac0z_pW9ECu-42" value="prevClass + &quot;반 총점: &quot; + sum" style="strokeWidth=2;html=1;shape=mxgraph.flowchart.display;whiteSpace=wrap;" vertex="1" parent="1">
          <mxGeometry x="-530" y="1249" width="206" height="60" as="geometry" />
        </mxCell>
        <mxCell id="7ljupvXo5ac0z_pW9ECu-55" value="" style="edgeStyle=orthogonalEdgeStyle;rounded=0;orthogonalLoop=1;jettySize=auto;html=1;" edge="1" parent="1" source="7ljupvXo5ac0z_pW9ECu-54" target="7ljupvXo5ac0z_pW9ECu-27">
          <mxGeometry relative="1" as="geometry" />
        </mxCell>
        <mxCell id="7ljupvXo5ac0z_pW9ECu-54" value="&quot;전체 총점: &quot; + total" style="strokeWidth=2;html=1;shape=mxgraph.flowchart.display;whiteSpace=wrap;" vertex="1" parent="1">
          <mxGeometry x="-532" y="1517" width="206" height="60" as="geometry" />
        </mxCell>
        <mxCell id="7ljupvXo5ac0z_pW9ECu-176" value="" style="edgeStyle=orthogonalEdgeStyle;rounded=0;orthogonalLoop=1;jettySize=auto;html=1;" edge="1" parent="1" source="7ljupvXo5ac0z_pW9ECu-172">
          <mxGeometry relative="1" as="geometry">
            <mxPoint x="-478.0000000000002" y="1660" as="targetPoint" />
            <Array as="points">
              <mxPoint x="-670" y="1660" />
            </Array>
          </mxGeometry>
        </mxCell>
        <mxCell id="7ljupvXo5ac0z_pW9ECu-172" value="&quot;No Data&quot;" style="strokeWidth=2;html=1;shape=mxgraph.flowchart.display;whiteSpace=wrap;" vertex="1" parent="1">
          <mxGeometry x="-721.1800000000001" y="1550" width="100" height="60" as="geometry" />
        </mxCell>
        <mxCell id="7ljupvXo5ac0z_pW9ECu-190" value="" style="edgeStyle=orthogonalEdgeStyle;rounded=0;orthogonalLoop=1;jettySize=auto;html=1;" edge="1" parent="1" source="7ljupvXo5ac0z_pW9ECu-184" target="7ljupvXo5ac0z_pW9ECu-188">
          <mxGeometry relative="1" as="geometry" />
        </mxCell>
        <mxCell id="7ljupvXo5ac0z_pW9ECu-184" value="" style="shape=requiredInterface;html=1;verticalLabelPosition=bottom;sketch=0;" vertex="1" parent="1">
          <mxGeometry x="-677.1800000000001" y="1169" width="10" height="20" as="geometry" />
        </mxCell>
        <mxCell id="7ljupvXo5ac0z_pW9ECu-185" value="" style="endArrow=none;html=1;rounded=0;entryX=0.5;entryY=1;entryDx=0;entryDy=0;exitX=0.242;exitY=-0.079;exitDx=0;exitDy=0;exitPerimeter=0;" edge="1" parent="1" source="7ljupvXo5ac0z_pW9ECu-184" target="7ljupvXo5ac0z_pW9ECu-72">
          <mxGeometry width="50" height="50" relative="1" as="geometry">
            <mxPoint x="-390" y="1100" as="sourcePoint" />
            <mxPoint x="-340" y="1050" as="targetPoint" />
          </mxGeometry>
        </mxCell>
        <mxCell id="7ljupvXo5ac0z_pW9ECu-189" value="" style="edgeStyle=orthogonalEdgeStyle;rounded=0;orthogonalLoop=1;jettySize=auto;html=1;" edge="1" parent="1" source="7ljupvXo5ac0z_pW9ECu-188" target="7ljupvXo5ac0z_pW9ECu-42">
          <mxGeometry relative="1" as="geometry" />
        </mxCell>
        <mxCell id="7ljupvXo5ac0z_pW9ECu-192" value="" style="edgeStyle=orthogonalEdgeStyle;rounded=0;orthogonalLoop=1;jettySize=auto;html=1;" edge="1" parent="1">
          <mxGeometry relative="1" as="geometry">
            <mxPoint x="-673.2352941176471" y="1318.944705882353" as="sourcePoint" />
            <mxPoint x="-672.1800000000001" y="1547" as="targetPoint" />
          </mxGeometry>
        </mxCell>
        <mxCell id="7ljupvXo5ac0z_pW9ECu-188" value="flag==1" style="rhombus;whiteSpace=wrap;html=1;" vertex="1" parent="1">
          <mxGeometry x="-712.1800000000001" y="1239" width="80" height="80" as="geometry" />
        </mxCell>
        <mxCell id="7ljupvXo5ac0z_pW9ECu-193" value="Y" style="text;html=1;align=center;verticalAlign=middle;whiteSpace=wrap;rounded=0;" vertex="1" parent="1">
          <mxGeometry x="-721.1800000000001" y="1309" width="60" height="30" as="geometry" />
        </mxCell>
        <mxCell id="7ljupvXo5ac0z_pW9ECu-194" value="N" style="text;html=1;align=center;verticalAlign=middle;whiteSpace=wrap;rounded=0;" vertex="1" parent="1">
          <mxGeometry x="-650" y="1249" width="60" height="30" as="geometry" />
        </mxCell>
      </root>
    </mxGraphModel>
  </diagram>
</mxfile>
